# xmcd
#
# Track frame offsets:
#	150
#	4359
#	33238
#	57808
#	86680
#	111904
#	139717
#	166322
#	196227
#	220114
#
# Disc length: 3297 seconds
# Revision: 2
# Processed by: cddbd v1.5.2PL0 Copyright (c) Steve Scherf et al.
# Submitted via: dBpowerAMP V12.0
#
DISCID=820cdf0a
DTITLE=Five Feathers Music - Band in the Pocket #2
DYEAR=2004
DGENRE=Blues
TTITLE0=Tuning Notes (A-440)
TTITLE1=Handful of Blues (E)
TTITLE2=Blue Funk (G)
TTITLE3=Cajun Cookin' (C)
TTITLE4=The Gospe Truth (F)
TTITLE5=Shake, Rattle and Swing (D)
TTITLE6=No Doubt (E)
TTITLE7=Very Slow Blues in A Minor (Am)
TTITLE8=Just Want a Little Blues (A)
TTITLE9=Rock 'Til Ya' Drop (B)
EXTD=
EXTT0=
EXTT1=
EXTT2=
EXTT3=
EXTT4=
EXTT5=
EXTT6=
EXTT7=
EXTT8=
EXTT9=
PLAYORDER=
